# xmcd
#
# Track frame offsets:
#	150
#	13887
#	27035
#	38817
#	60992
#	72702
#
# Disc length: 1216 seconds
#
# Revision: 0
# Processed by: cddbd v1.5.2PL0 Copyright (c) Steve Scherf et al.
# Submitted via: EasyCDDAExtractor 10.0.6.1
#
DISCID=4a04be06
DTITLE=Simone, Nina - To Go - Stick It In Your Ear
DYEAR=2006
DGENRE=Blues
TTITLE0=My Baby Just Cares For Me
TTITLE1=Feeling Good
TTITLE2=See-Line Woman
TTITLE3=Mississippi Goddam
TTITLE4=I Put A Spell On You
TTITLE5=Love Me Or Leave Me
EXTD=
EXTT0=
EXTT1=
EXTT2=
EXTT3=
EXTT4=
EXTT5=
PLAYORDER=
